<?xml version="1.0" encoding="utf-8"?>
<!-- Generator: Adobe Illustrator 16.0.0, SVG Export Plug-In . SVG Version: 6.00 Build 0)  -->
<!DOCTYPE svg PUBLIC "-//W3C//DTD SVG 1.1//EN" "http://www.w3.org/Graphics/SVG/1.1/DTD/svg11.dtd">
<svg version="1.1" id="Layer_1" xmlns="http://www.w3.org/2000/svg" xmlns:xlink="http://www.w3.org/1999/xlink" x="0px" y="0px"
	 width="260.636px" height="80.111px" viewBox="0 0 260.636 80.111" enable-background="new 0 0 260.636 80.111"
	 xml:space="preserve">
<g>
	<path fill="#BE5C58" d="M77.75,42.249c0,8.079-3.44,12.268-10.922,12.268c-7.405,0-10.846-4.188-10.846-12.342v-23.01h-9.276
		v23.981c0,13.766,8.827,19.227,20.122,19.227c11.296,0,20.274-5.461,20.274-19.227V19.164H77.75V42.249z"/>
	<polygon fill="#BE5C58" points="187.939,43.686 207.839,43.686 207.839,35.981 187.939,35.981 187.939,26.945 213.299,26.945 
		213.299,19.165 178.739,19.165 178.739,61.474 213.973,61.474 213.973,53.694 187.939,53.694 	"/>
	<path fill="#BE5C58" d="M111.521,67.575c-0.793-0.654-1.797-1.017-2.825-1.017c-0.813,0-1.581,0.243-2.261,0.647
		c-4.916-4.555-8.523-10.363-10.406-16.975c-2.718-9.543-1.556-19.573,3.27-28.241c4.826-8.669,12.738-14.942,22.28-17.66
		c3.376-0.96,6.814-1.438,10.23-1.438c4.919,0,9.791,1.003,14.38,2.951c0.346-0.908,0.807-1.773,1.434-2.547
		c-8.458-3.67-17.846-4.311-26.834-1.745c-10.286,2.929-18.815,9.688-24.016,19.032c-5.202,9.344-6.451,20.153-3.522,30.438
		c2.042,7.171,5.965,13.466,11.316,18.388c-0.245,0.635-0.359,1.314-0.292,2.013c0.112,1.181,0.68,2.247,1.594,3.002
		c0.793,0.654,1.797,1.014,2.825,1.014c1.319,0,2.557-0.579,3.402-1.591c0.007-0.008,0.017-0.014,0.024-0.021v-0.001h0.001
		c0.166-0.202,0.302-0.416,0.424-0.637c0.036-0.063,0.074-0.124,0.106-0.188c0.087-0.176,0.158-0.357,0.221-0.54
		c0.043-0.124,0.082-0.247,0.113-0.374c0.001-0.004,0.003-0.008,0.004-0.012c-0.001,0-0.001-0.001-0.001-0.001
		C113.385,70.466,112.881,68.699,111.521,67.575"/>
	<path fill="#BE5C58" d="M249.268,38.435c0,2.481,1.971,4.546,4.521,4.546c2.563,0,4.561-2.091,4.561-4.574
		c0-2.495-1.985-4.548-4.535-4.548C251.252,33.859,249.268,35.954,249.268,38.435 M257.583,38.407c0,2.053-1.648,3.77-3.795,3.77
		c-2.135,0-3.756-1.692-3.756-3.743c0-2.051,1.635-3.769,3.781-3.769C255.945,34.666,257.583,36.355,257.583,38.407"/>
	<path fill="#BE5C58" d="M252.083,40.554h0.765v-1.37h1.062h0.201l0.844,1.37h0.886l-1.047-1.516
		c0.618-0.242,0.952-0.751,0.952-1.462c0-0.993-0.658-1.557-1.836-1.557h-1.826V40.554z M252.848,36.663h1.062
		c0.697,0,1.112,0.322,1.112,0.925c0,0.605-0.415,0.953-1.112,0.953h-1.062V36.663z"/>
	<polygon fill="#BE5C58" points="241.647,37.177 258.67,19.164 247.752,19.164 229.904,38.075 229.904,19.164 220.552,19.164 
		220.552,61.474 229.904,61.474 229.904,48.248 234.766,43.237 249.37,61.474 260.636,61.474 	"/>
	<polygon fill="#BE5C58" points="20.152,34.318 10.446,19.165 0,19.165 15.215,43.295 15.215,61.473 24.34,61.473 24.34,43.295 
		39.554,19.165 29.516,19.165 	"/>
	<path fill="#BE5C58" d="M99.551,40.018c0,17.704,14.353,32.055,32.057,32.055c17.704,0,32.057-14.351,32.057-32.055
		c0-17.705-14.353-32.057-32.057-32.057C113.904,7.961,99.551,22.313,99.551,40.018 M144.357,19.164h4.226l-14.514,20.091
		l16.105,22.219h-4.313l-14.208-19.353l-14.29,19.353h-4.31l16.27-22.219l-14.51-20.091h4.313l12.617,17.316L144.357,19.164z"/>
	<path fill="#BE5C58" d="M158.94,10.7c0.245-0.635,0.358-1.315,0.292-2.012c-0.111-1.18-0.68-2.245-1.594-3
		c-0.793-0.654-1.795-1.014-2.822-1.014c-1.219,0-2.354,0.511-3.189,1.383c-0.078,0.08-0.165,0.142-0.237,0.229
		c-0.16,0.194-0.292,0.4-0.412,0.612c-0.04,0.069-0.08,0.137-0.116,0.208c-0.082,0.166-0.151,0.337-0.213,0.51
		c-0.05,0.137-0.091,0.274-0.126,0.415c-0.001,0.002-0.001,0.004-0.002,0.006l0.001,0.001c-0.121,0.483-0.176,0.986-0.127,1.498
		c0.113,1.181,0.682,2.245,1.594,3c0.793,0.654,1.798,1.016,2.824,1.016c0.814,0,1.581-0.243,2.26-0.647
		c4.916,4.555,8.523,10.363,10.407,16.975c2.718,9.544,1.556,19.572-3.271,28.241c-4.827,8.669-12.738,14.941-22.279,17.66
		c-8.237,2.344-16.836,1.786-24.611-1.513c-0.342,0.901-0.801,1.761-1.422,2.532c5.033,2.182,10.389,3.309,15.8,3.309
		c3.681,0,7.387-0.513,11.023-1.551c10.286-2.928,18.816-9.687,24.016-19.03c5.203-9.345,6.452-20.154,3.522-30.439
		C168.216,21.918,164.292,15.624,158.94,10.7"/>
</g>
</svg>
